<mxfile host="app.diagrams.net" modified="2022-03-28T14:20:26.258Z" agent="5.0 (X11)" etag="4JwbDNowyVM_XsDXKAqy" version="17.2.4" type="github">
  <diagram id="Fcm92ZEwrL63aqLdcZx5" name="Page-1">
    <mxGraphModel dx="1440" dy="872" grid="1" gridSize="10" guides="1" tooltips="1" connect="1" arrows="1" fold="1" page="1" pageScale="1" pageWidth="827" pageHeight="1169" math="0" shadow="0">
      <root>
        <mxCell id="0" />
        <mxCell id="1" parent="0" />
        <mxCell id="UMukY2l8bxTL92an-aEC-1" value="" style="ellipse;whiteSpace=wrap;html=1;aspect=fixed;strokeWidth=3;fillColor=#d5e8d4;strokeColor=#82b366;" vertex="1" parent="1">
          <mxGeometry x="319" y="489" width="190" height="190" as="geometry" />
        </mxCell>
      </root>
    </mxGraphModel>
  </diagram>
</mxfile>
